<svg xmlns="http://www.w3.org/2000/svg" viewBox="0 0 24 24" height="24" width="24"><style type="text/css">.st0{fill:none;}</style><path d="M20,3h-1V1h-2v2H7V1H5v2H4C2.9,3,2,3.9,2,5v16c0,1.1,0.9,2,2,2h16c1.1,0,2-0.9,2-2V5C22,3.9,21.1,3,20,3z M20,21H4V8h16V21z"/><path class="st0" d="M0,0h24v24H0V0z"/><path d="M14.6,10.6c-2.7,0-5,2.2-5,5s2.2,5,5,5c2.7,0,5-2.2,5-5S17.3,10.6,14.6,10.6z M14.6,19.5c-2.2,0-4-1.8-4-4s1.8-4,4-4s4,1.8,4,4S16.8,19.5,14.6,19.5z"/><path d="M14.8,13h-0.7v3l2.6,1.6l0.4-0.6l-2.2-1.3V13z"/></svg>